{
	"asset":{
		"generator":"Khronos glTF Blender I/O v3.6.27",
		"version":"2.0"
	},
	"scene":0,
	"scenes":[
		{
			"name":"Scene",
			"nodes":[
				0
			]
		}
	],
	"nodes":[
		{
			"mesh":0,
			"name":"Cylinder",
			"rotation":[
				0.4974508285522461,
				-0.4974508285522461,
				0.5025365352630615,
				0.5025361180305481
			],
			"scale":[
				0.3923138678073883,
				0.3923138380050659,
				0.3923138678073883
			],
			"translation":[
				0.9999997019767761,
				0,
				0
			]
		}
	],
	"materials":[
		{
			"doubleSided":true,
			"name":"Material",
			"pbrMetallicRoughness":{
				"baseColorFactor":[
					0.800000011920929,
					0.800000011920929,
					0.800000011920929,
					1
				],
				"metallicFactor":0,
				"roughnessFactor":0.5
			}
		},
		{
			"doubleSided":true,
			"name":"SVGMat",
			"pbrMetallicRoughness":{
				"baseColorFactor":[
					0,
					0,
					0,
					1
				],
				"metallicFactor":0,
				"roughnessFactor":0.4000000059604645
			}
		},
		{
			"doubleSided":true,
			"name":"SVGMat.001",
			"pbrMetallicRoughness":{
				"baseColorFactor":[
					0,
					0,
					0,
					1
				],
				"metallicFactor":0,
				"roughnessFactor":0.4000000059604645
			}
		}
	],
	"meshes":[
		{
			"name":"Cylinder",
			"primitives":[
				{
					"attributes":{
						"POSITION":0,
						"NORMAL":1,
						"TEXCOORD_0":2
					},
					"indices":3,
					"material":0
				},
				{
					"attributes":{
						"POSITION":4,
						"NORMAL":5,
						"TEXCOORD_0":6
					},
					"indices":7,
					"material":1
				},
				{
					"attributes":{
						"POSITION":8,
						"NORMAL":9,
						"TEXCOORD_0":10
					},
					"indices":11,
					"material":2
				}
			]
		}
	],
	"accessors":[
		{
			"bufferView":0,
			"componentType":5126,
			"count":130,
			"max":[
				0.9838787317276001,
				0.16099199652671814,
				0.9838787317276001
			],
			"min":[
				-0.9838787317276001,
				-0.16099199652671814,
				-0.9838787317276001
			],
			"type":"VEC3"
		},
		{
			"bufferView":1,
			"componentType":5126,
			"count":130,
			"type":"VEC3"
		},
		{
			"bufferView":2,
			"componentType":5126,
			"count":130,
			"type":"VEC2"
		},
		{
			"bufferView":3,
			"componentType":5123,
			"count":372,
			"type":"SCALAR"
		},
		{
			"bufferView":4,
			"componentType":5126,
			"count":6202,
			"max":[
				0.8586598038673401,
				0.2111736536026001,
				1.9295374155044556
			],
			"min":[
				-0.9282726049423218,
				0.16441048681735992,
				-0.9218106865882874
			],
			"type":"VEC3"
		},
		{
			"bufferView":5,
			"componentType":5126,
			"count":6202,
			"type":"VEC3"
		},
		{
			"bufferView":6,
			"componentType":5126,
			"count":6202,
			"type":"VEC2"
		},
		{
			"bufferView":7,
			"componentType":5123,
			"count":14136,
			"type":"SCALAR"
		},
		{
			"bufferView":8,
			"componentType":5126,
			"count":647,
			"max":[
				0.8609743118286133,
				0.16441112756729126,
				0.38299599289894104
			],
			"min":[
				-0.7939231395721436,
				0.16441044211387634,
				-0.9252161383628845
			],
			"type":"VEC3"
		},
		{
			"bufferView":9,
			"componentType":5126,
			"count":647,
			"type":"VEC3"
		},
		{
			"bufferView":10,
			"componentType":5126,
			"count":647,
			"type":"VEC2"
		},
		{
			"bufferView":11,
			"componentType":5123,
			"count":1734,
			"type":"SCALAR"
		}
	],
	"bufferViews":[
		{
			"buffer":0,
			"byteLength":1560,
			"byteOffset":0,
			"target":34962
		},
		{
			"buffer":0,
			"byteLength":1560,
			"byteOffset":1560,
			"target":34962
		},
		{
			"buffer":0,
			"byteLength":1040,
			"byteOffset":3120,
			"target":34962
		},
		{
			"buffer":0,
			"byteLength":744,
			"byteOffset":4160,
			"target":34963
		},
		{
			"buffer":0,
			"byteLength":74424,
			"byteOffset":4904,
			"target":34962
		},
		{
			"buffer":0,
			"byteLength":74424,
			"byteOffset":79328,
			"target":34962
		},
		{
			"buffer":0,
			"byteLength":49616,
			"byteOffset":153752,
			"target":34962
		},
		{
			"buffer":0,
			"byteLength":28272,
			"byteOffset":203368,
			"target":34963
		},
		{
			"buffer":0,
			"byteLength":7764,
			"byteOffset":231640,
			"target":34962
		},
		{
			"buffer":0,
			"byteLength":7764,
			"byteOffset":239404,
			"target":34962
		},
		{
			"buffer":0,
			"byteLength":5176,
			"byteOffset":247168,
			"target":34962
		},
		{
			"buffer":0,
			"byteLength":3468,
			"byteOffset":252344,
			"target":34963
		}
	],
	"buffers":[
		{
			"byteLength":255812,
			"uri":"alterum%20logo.bin"
		}
	]
}
