{
	"asset":{
		"generator":"Khronos glTF Blender I/O v3.6.27",
		"version":"2.0"
	},
	"scene":0,
	"scenes":[
		{
			"name":"Scene",
			"nodes":[
				0
			]
		}
	],
	"nodes":[
		{
			"mesh":0,
			"name":"Cube.002",
			"rotation":[
				-0.7090455889701843,
				0,
				-0.000543865142390132,
				0.7051624655723572
			],
			"scale":[
				0.5839937329292297,
				0.5839937925338745,
				0.5839937925338745
			],
			"translation":[
				-0.06416288018226624,
				0.044916316866874695,
				-1.2049000263214111
			]
		}
	],
	"materials":[
		{
			"doubleSided":true,
			"name":"SVGMat.005",
			"pbrMetallicRoughness":{
				"baseColorFactor":[
					1,
					1,
					1,
					1
				],
				"metallicFactor":0,
				"roughnessFactor":0.4000000059604645
			}
		}
	],
	"meshes":[
		{
			"name":"Cube.002",
			"primitives":[
				{
					"attributes":{
						"POSITION":0,
						"NORMAL":1,
						"TEXCOORD_0":2
					},
					"indices":3,
					"material":0
				}
			]
		}
	],
	"accessors":[
		{
			"bufferView":0,
			"componentType":5126,
			"count":50178,
			"max":[
				0.939297616481781,
				-6.916200637817383,
				0.9009208679199219
			],
			"min":[
				-0.9292677640914917,
				-7.556553363800049,
				-0.9723312258720398
			],
			"type":"VEC3"
		},
		{
			"bufferView":1,
			"componentType":5126,
			"count":50178,
			"type":"VEC3"
		},
		{
			"bufferView":2,
			"componentType":5126,
			"count":50178,
			"type":"VEC2"
		},
		{
			"bufferView":3,
			"componentType":5123,
			"count":83304,
			"type":"SCALAR"
		}
	],
	"bufferViews":[
		{
			"buffer":0,
			"byteLength":602136,
			"byteOffset":0,
			"target":34962
		},
		{
			"buffer":0,
			"byteLength":602136,
			"byteOffset":602136,
			"target":34962
		},
		{
			"buffer":0,
			"byteLength":401424,
			"byteOffset":1204272,
			"target":34962
		},
		{
			"buffer":0,
			"byteLength":166608,
			"byteOffset":1605696,
			"target":34963
		}
	],
	"buffers":[
		{
			"byteLength":1772304,
			"uri":"SideWing.bin"
		}
	]
}
