<svg fill="white" xmlns="http://www.w3.org/2000/svg" xmlns:xlink="http://www.w3.org/1999/xlink" version="1.1" id="Layer_1" x="0px" y="0px" enable-background="new 0 0 612 792" xml:space="preserve" viewBox="130.42 206.88 355.28 385.8">
<path d="M468.583,309.939c0.079,0.066,0.158,0.132,0.045,0.355c-1.175-0.674-2.158-1.506-3.517-2.656  c-0.492,1.458-0.791,2.771-1.376,3.942c-0.451,0.902-1.261,1.624-1.751,2.229c0.768,2.269,1.553,4.679,2.407,7.065  c0.306,0.852,0.706,2.271,1.19,2.327c0.896,0.104,1.887-0.606,2.548-0.864c-0.937-0.917-2.222-1.8-2.095-2.111  c1.09-2.691,2.434-5.279,3.701-7.898c0.819,1.801,1.639,3.603,2.365,5.769c-0.816,0.163-1.541-0.039-2.364-0.269  c-0.093,0.229-0.448,0.663-0.352,0.935c0.845,2.356,0.28,4.398-0.754,6.624c-0.603,1.298-0.109,3.105-0.109,4.819  c1.497-0.198,2.331-0.308,2.7-0.356c0.868,2.633,1.7,4.98,2.395,7.367c0.198,0.684,0.129,2.103-0.039,2.139  c-3.388,0.719-1.733,3.008-1.713,4.866c0.006,0.52-0.873,1.049-1.346,1.574c-4.729-18.541-12.009-35.98-22.36-52.321  c1.741-1.304,2.412-2.343,0.1-3.699c-0.532,0.787-0.962,1.424-1.392,2.061c-8.61-12.373-18.224-23.866-29.763-33.641  c-21.503-18.216-45.729-31.069-73.345-37.323c-13.349-3.023-26.829-4.705-40.504-4.152c-28.179,1.139-54.641,8.38-78.993,22.829  c-32.775,19.447-56.316,46.937-70.874,82.058c-10.91,26.319-14.547,53.806-11.948,82.128c2.195,23.926,8.475,46.845,17.309,69.118  c0.449,1.132,0.708,2.34,0.809,3.59c-16.2-21.538-25.524-45.692-28.171-72.481c-3.458-35.004,2.296-68.317,18.496-99.593  c19.888-38.396,49.581-66.502,89.493-83.435c37.643-15.971,76.345-18.261,115.612-7.229c38.802,10.902,70.327,32.863,94.911,64.776  c2.363,3.068,4.434,6.362,6.544,9.894c-1.389-0.341-2.682-1.025-4.54-2.008c0.211,1.941,0.518,3.34,0.485,4.73  c-0.12,5.086-0.014,5.553,4.797,7.406c2.552,0.983,4.215,2.216,4.273,5.162c0.014,0.668,0.861,1.32,1.325,1.979  c0.53-0.689,1.107-1.349,1.574-2.079c0.252-0.395,0.315-0.909,0.465-1.37c1.171,2.254,2.341,4.509,3.474,7.046  C468.367,309.662,468.476,309.8,468.583,309.939 M470.635,335.218c-0.22-0.217-0.438-0.434-0.658-0.651  c-0.166,0.18-0.331,0.36-0.496,0.54C469.783,335.224,470.085,335.341,470.635,335.218 M461.131,312.037  C461.131,312.037,461.079,312.065,461.131,312.037 M460.534,310.842"/>
<path d="M296.776,306.055c20.36-6.025,40.303,6.222,45.676,25.577c6.563,23.642-11.312,46.443-35.904,46.146  c-19.78-0.24-33.197-14.635-35.729-30.647C267.848,328.332,278.533,311.642,296.776,306.055z"/>
<path d="M167.349,442.691c-0.196-0.033-0.392-0.091-0.588-0.097c-7.076-0.196-7.292-0.399-8.253-7.959c2.468,0,4.913,0.001,7.358,0  c25.695-0.007,51.39,0.011,77.085-0.082c1.464-0.005,3.17-0.582,4.351-1.452c12.807-9.44,25.525-19.002,38.28-28.511  c7.093-5.288,14.212-10.542,21.421-15.886c12.104,8.867,24.127,17.676,36.153,26.481c7.79,5.701,15.591,11.388,23.375,17.097  c2.218,1.626,4.511,2.462,7.424,2.447c27.187-0.144,54.373-0.11,81.561-0.12c0.763,0,1.525,0.1,3.065,0.206  c-1.235,2.841-2.296,5.28-3.841,7.735c-76.019,0.023-151.554,0.026-227.09,0.046C207.55,442.602,187.45,442.658,167.349,442.691   M325.349,414.014c-4.486-3.362-8.973-6.725-14.052-10.532c0,5.469,0,10.09,0,14.647c-2.853,0-5.402,0-8.288,0  c0-4.803,0-9.405,0-14.837c-13.752,10.476-26.885,20.478-40.018,30.48c0.083,0.21,0.165,0.42,0.247,0.63c29.557,0,59.113,0,88.669,0  c0.101-0.21,0.201-0.42,0.302-0.63C343.367,427.274,334.525,420.777,325.349,414.014z"/>
<path d="M381.305,446.797c24.278,0,48.258,0,72.731,0c-1.161,2.593-1.998,4.909-3.245,6.978c-0.389,0.645-1.888,0.857-2.881,0.863  c-9.76,0.056-19.52,0.02-29.279,0.021c-83.457,0.019-166.914,0.033-250.371,0.095c-1.706,0.001-2.769-0.381-3.406-2.054  c-0.699-1.837-1.635-3.584-2.716-5.903C235.374,446.797,308.189,446.797,381.305,446.797z"/>
<path d="M249.873,471.697c2.772,0.028,5.544,0.057,8.866,0.108c24.624,0.028,48.697,0.05,72.771,0.034  c11.037-0.008,22.074-0.088,33.111-0.135c0.424,0.024,0.848,0.05,1.694,0.098c0.714-0.019,1.004-0.062,1.294-0.105  c3.37,0.031,6.74,0.063,10.662,0.113c10.882,0.033,21.213,0.08,31.544,0.051c7.046-0.02,14.091-0.144,21.137-0.222  c3.081,0,6.162,0,10.013,0c-2.143,2.902-3.773,5.456-5.791,7.654c-0.694,0.757-2.353,0.867-3.572,0.87  c-26.688,0.066-53.376,0.09-80.064,0.096c-55.568,0.013-111.135-0.008-166.703,0.072c-2.456,0.003-4.134-0.596-5.438-2.681  c-1.191-1.904-2.63-3.653-4.271-5.896c7.295,0,14.099,0,21.453,0.032c3.531,0.041,6.512,0.066,9.492,0.057  C220.671,471.8,235.272,471.747,249.873,471.697z"/>
<path d="M334.688,459.229c1.616,0.023,3.232,0.046,5.366,0.083c1.545-0.02,2.57-0.052,3.597-0.085  c2.408,0.025,4.817,0.052,7.734,0.091c1.147-0.023,1.786-0.06,2.425-0.097c20.535,0.032,41.07,0.064,62.145,0.105  c1.957-0.022,3.376-0.056,4.794-0.089c3.403,0.025,6.806,0.052,10.743,0.085c1.755-0.027,2.977-0.064,4.198-0.101  c0.45,0.027,0.901,0.055,1.795,0.092c0.893-0.025,1.342-0.061,1.791-0.096c1.616,0.028,3.232,0.056,5.265,0.089  c0.514-0.025,0.613-0.055,0.713-0.084c0.785,0.069,1.571,0.139,2.76,0.243c-1.278,2.333-2.291,4.588-3.707,6.551  c-0.521,0.723-1.994,1.062-3.034,1.064c-33.261,0.081-66.522,0.114-99.784,0.125c-54.873,0.019-109.745-0.021-164.616,0.114  c-3.341,0.009-5.387-0.8-6.589-3.885c-0.463-1.189-1.266-2.246-2.056-3.602c-0.142-0.239-0.158-0.451-0.158-0.451  c3.958-0.034,7.917-0.068,12.347-0.089c0.737-0.024,1.002-0.062,1.268-0.1c1.421,0.035,2.842,0.071,4.787,0.123  c1.942-0.015,3.36-0.047,4.779-0.079c0.267,0.024,0.534,0.049,1.149,0.084c0.447-0.024,0.546-0.059,0.646-0.093  c0.831,0.024,1.662,0.05,2.89,0.093c0.496-0.014,0.596-0.047,0.697-0.079c0.639,0.029,1.278,0.058,2.423,0.103  c2.517-0.029,4.527-0.075,6.538-0.12c1.028,0.033,2.056,0.065,3.573,0.108c1.127-0.035,1.765-0.079,2.403-0.123  c3.006,0.026,6.012,0.053,9.514,0.095c0.944-0.021,1.393-0.058,1.841-0.095c0.834,0.033,1.667,0.065,3.022,0.112  c3.324-0.034,6.127-0.081,8.93-0.128c6.791,0.033,13.581,0.066,20.894,0.113c1.353-0.021,2.185-0.056,3.016-0.09  c8.184,0.033,16.368,0.067,25.102,0.109c2.956-0.031,5.362-0.07,7.769-0.11c7.984,0.027,15.969,0.055,24.379,0.09  c0.526-0.024,0.626-0.057,0.726-0.089c0.267,0.029,0.534,0.058,1.195,0.098c0.66-0.025,0.927-0.062,1.193-0.099  c0.268,0.027,0.535,0.055,1.149,0.085c0.446-0.031,0.545-0.066,0.644-0.102c4.198,0.036,8.397,0.072,13.022,0.118  C334.488,459.296,334.588,459.262,334.688,459.229z"/>
<path d="M407.006,504.08c1.065,0.08,2.13,0.159,3.194,0.239c0.122,0.191,0.244,0.384,0.366,0.575  c-4.225,3.027-8.397,6.133-12.718,9.017c-0.87,0.581-2.303,0.43-3.476,0.431c-46.202,0.027-92.404,0.034-138.606,0.041  c-11.252,0.001-22.504-0.056-33.755,0.023c-2.47,0.018-4.602-0.388-6.595-1.979c-3.296-2.633-6.75-5.067-9.91-8.267  c4.028,0,8.056,0,12.637-0.001c45.817,0.009,91.082,0.029,136.346,0.022C371.995,504.18,389.501,504.116,407.006,504.08z"/>
<path d="M191.254,490.431c-2.227-1.91-4.454-3.819-6.68-5.729c0.099-0.202,0.197-0.404,0.295-0.606c81.908,0,163.816,0,246.744,0  c-2.39,2.316-4.23,4.102-6.481,6.024c-37.616,0.169-74.82,0.195-112.025,0.234c-14.122,0.016-28.243,0.06-42.599,0.024  c-0.876-0.029-1.519,0.008-2.435-0.022c-12.685-0.071-25.097-0.095-37.509-0.071C217.46,490.311,204.357,490.38,191.254,490.431z"/>
<path d="M382.321,523.662c-5.931,3.417-12.016,4.521-18.711,4.479c-37.125-0.236-74.255-0.333-111.378,0.046  c-8.737,0.089-16.066-2.645-23.242-6.847c-1.154-0.677-2.254-1.445-4.007-2.576c55.598,0,110.42,0,165.243,0  c0.069,0.156,0.14,0.312,0.209,0.47C387.794,520.669,385.151,522.104,382.321,523.662z"/>
<path d="M420.147,493.914c0.467,0.096,0.933,0.192,1.787,0.368c-1.689,1.624-3.186,3.062-5.007,4.748  c-1.979,0.477-3.63,0.897-5.282,0.899c-35.232,0.042-70.464,0.049-105.696,0.038c-35.232-0.011-70.464-0.048-105.696-0.073  c-0.644-0.437-1.378-0.785-1.913-1.328c-1.359-1.381-2.629-2.849-4.245-4.621c4.353,0,8.548,0,13.286-0.003  c2.354-0.027,4.164-0.053,6.251-0.027c11.85,0.015,23.423-0.021,35.271-0.006c3.476,0.02,6.677-0.011,10.154,0.012  c8.063,0.024,15.85-0.004,23.914,0.014c7.859,0.011,15.442-0.023,23.279-0.009c1.904,0.012,3.555-0.025,5.455-0.018  c12.806,0.015,25.362-0.016,38.196,0.004c12.247,0.018,24.219-0.015,36.401,0c0.93,0.015,1.648-0.02,2.568-0.003  c1.623,0.011,3.044-0.028,4.712-0.017c1.425,0.023,2.602-0.004,3.991,0.025c1.095,0.022,1.977-0.011,3.136,0.003  c4.673,0.019,9.069-0.011,13.72,0.008c1.279,0.018,2.307-0.013,3.569,0.003C418.873,493.956,419.51,493.935,420.147,493.914z"/>
<path d="M483.422,358.347c2.428,13.201,2.738,26.521,1.745,39.847c-1.683,22.585-7.57,43.979-19.105,63.619  c-2.563,4.364-5.474,8.525-8.268,12.752c-0.446,0.676-1.117,1.203-1.893,1.649c13.128-31.7,20.447-64.431,19.561-99.154  c0.772-2.806,1.292-5.28,1.812-7.754c0.306,0.009,0.611,0.019,0.918,0.028c0.134,0.959,0.176,1.943,0.429,2.87  c0.21,0.772,0.666,1.478,1.014,2.212c0.605-0.734,1.477-1.383,1.749-2.225c0.34-1.048,0.186-2.256,0.244-3.396  c0.333-0.201,0.665-0.401,0.998-0.602c-1.994-1.364-4.287-2.452-5.883-4.184c-1.164-1.263-1.407-3.373-2.062-5.105  c1.2-0.277,2.401-0.555,3.839-0.886c0.29-0.908,0.742-2.318,1.193-3.728c1.138,0.862,1.453,1.783,1.993,2.544  C482.136,357.44,482.84,357.851,483.422,358.347z"/>
<path d="M256.648,531.69c35.252,0.002,70.242,0.002,105.72,0.002c-18.51,13.127-87.62,13.129-109.331-0.004  C254.524,531.688,255.454,531.688,256.648,531.69z"/>
<path d="M431.515,535.244c2.599,2.408,5.198,4.816,7.769,7.197c-1.255,1.354-2.263,2.442-3.391,3.659  c-3.498-2.981-6.851-5.84-10.755-9.169c0,3.557,0,6.384,0,9.519c-3.449-0.854-6.523-1.614-10.184-2.52  c2.447,4.352,4.58,8.144,6.865,12.207c-1.285,1.005-2.491,1.947-3.945,3.084c-4.136-7.01-8.202-13.9-12.224-20.715  c1.852-2.258,3.629-2.648,6.191-1.378c2.529,1.253,5.416,1.784,8.017,2.592c0-2.97,0-5.851,0.205-8.986  c1,0.232,1.794,0.72,2.597,1.213c0.345-0.415,0.687-0.826,1.147-1.381c1.499,3.109,3.841,4.444,7.098,4.092  c0,0,0.005-0.002,0.072,0.129C431.166,535.078,431.322,535.187,431.515,535.244z"/>
<path d="M333.184,590.532c-1.634-6.557-3.06-13.009-4.473-19.463c-0.211-0.96-0.367-1.933-0.617-3.264  c3.285-0.703,6.501-1.582,9.774-2.043c3.871-0.544,7.135,0.777,9.001,4.389c1.815,3.511,0.926,6.729-1.884,9.924  c2.217,2.026,4.462,4.078,6.903,6.31c-2.958,1.515-5.263,2.089-7.767-0.364c-2.032-1.991-4.205-4.552-7.845-2.572  c0.261,2.082,0.53,4.235,0.825,6.592C335.839,590.244,334.618,590.44,333.184,590.532 M339.976,577.386  c2.319-0.888,3.518-2.634,2.373-4.874c-2.07-4.054-5.346-0.977-8.103-1.242C334.172,577.562,334.964,578.466,339.976,577.386z"/>
<path d="M194.496,548.711c-2.298-2.566-4.82-3.473-7.807-1.846c-2.982,1.625-4.983,0.641-6.584-2.516  c5.189-2.023,10.38-4.073,15.593-6.066c2.317-0.886,4.636-1.834,7.037-2.402c1.114-0.265,2.515,0.098,3.628,0.558  c1.571,0.648,1.375,1.991,1.026,3.475c-1.725,7.32-3.329,14.67-4.979,22.028c-4.359-1.749-4.957-2.688-3.662-6.6  c0.673-2.031,0.422-3.394-1.528-4.452C196.275,550.378,195.508,549.541,194.496,548.711 M196.246,543.332  c1.2,1.442,2.4,2.885,4.099,4.926c0.554-2.979,0.892-4.793,1.256-6.752C199.758,542.112,198.198,542.624,196.246,543.332z"/>
<path d="M384.33,574.781c-3.86-0.18-6.927-1.536-8.651-4.756c-2.234-4.173-4.129-8.527-6.262-12.996  c1.578-0.795,2.875-1.448,4.468-2.25c1.233,2.564,2.388,5.053,3.621,7.5c0.847,1.679,1.639,3.424,2.748,4.923  c1.776,2.399,4.498,2.951,6.846,1.677c2.756-1.496,3.765-3.685,2.553-6.715c-1.609-4.024-3.557-7.913-5.463-12.087  c1.298-0.764,2.552-1.502,4.354-2.562c2.24,4.998,4.937,9.678,6.447,14.714C397.005,568.946,392.146,574.407,384.33,574.781z"/>
<path d="M295.299,577.955c2.836,0.087,5.414,0.087,8.194,0.087c0,1.717,0,3.147,0,4.971c-2.933-0.149-5.841-0.298-8.938-0.456  c-0.114,1.609-0.216,3.056-0.332,4.697c3.709,0.198,7.272,0.39,11.032,0.591c0,1.435,0,2.875,0,4.834  c-5.321-0.262-10.707-0.525-16.446-0.807c0.528-7.725,1.045-15.303,1.562-22.864c5.216,0,10.321,0,15.509,0c0,1.81,0,3.258,0,4.758  c-3.585,0-7.026,0-10.839,0C295.04,575.09,295.04,576.479,295.299,577.955z"/>
<path d="M470.509,345.984c0.483-0.714,1.362-1.244,1.356-1.764c-0.021-1.857-1.675-4.147,1.713-4.866  c0.168-0.036,0.237-1.455,0.039-2.139c-0.694-2.387-1.526-4.734-2.395-7.367c-0.369,0.048-1.203,0.159-2.7,0.356  c0-1.714-0.493-3.521,0.109-4.819c1.034-2.226,1.599-4.267,0.754-6.624c-0.097-0.272,0.259-0.706,0.352-0.935  c0.823,0.229,1.548,0.431,2.377,0.482c3.047,8.907,5.992,17.964,8.75,27.291c-0.334,0.482-0.482,0.696-0.631,0.91  c0.334,0.146,0.668,0.292,1.002,0.438c0.141,0.3,0.282,0.601,0.186,1.105c-0.98,0.774-1.723,1.344-3.024,2.342  c-0.271-1.925-0.473-3.37-0.657-4.679c-0.988-0.672-1.927-1.311-2.866-1.95c-0.258,0.175-0.516,0.351-0.773,0.526  c0.832,1.535,1.571,3.13,2.519,4.59c1.35,2.08,0.777,3.617-2.044,4.646c-0.534-2.052-1.064-4.089-1.632-6.269  c-0.598,0.104-1.255,0.217-1.912,0.33C470.854,347.118,470.676,346.646,470.509,345.984 M474.799,338.318"/>
<path d="M259.726,585.089c-1.419,3.653-3.392,0.787-5.486,0.987c1.621-6.252,3.154-12.162,4.73-18.243  c-2.062-0.626-3.925-1.191-5.965-1.811c0.351-1.477,0.688-2.892,1.09-4.585c5.665,1.515,11.154,2.982,16.829,4.5  c-0.385,1.641-0.716,3.051-1.097,4.674c-1.89-0.425-3.601-0.81-5.85-1.315C262.603,574.448,261.21,579.663,259.726,585.089z"/>
<path d="M218.606,571.363c-0.292-0.633-0.692-1.249-0.526-1.595c3.184-6.671,6.435-13.31,9.78-20.178  c1.455,0.918,2.746,1.733,4.147,2.619c-2.57,5.484-5.081,10.844-7.735,16.508c2.76,1.487,5.504,2.966,8.529,4.596  c-0.672,1.347-1.309,2.624-2.168,4.347C226.585,575.562,222.673,573.533,218.606,571.363z"/>
<path d="M471.01,347.826c0.678-0.35,1.335-0.463,1.933-0.566c0.567,2.179,1.098,4.216,1.632,6.269  c2.821-1.029,3.394-2.566,2.044-4.646c-0.947-1.46-1.687-3.056-2.519-4.59c0.258-0.175,0.516-0.351,0.773-0.526  c0.939,0.639,1.878,1.277,2.866,1.95c0.185,1.309,0.387,2.754,0.657,4.679c1.302-0.998,2.044-1.568,2.988-2.172  c0.835,3.189,1.468,6.414,2.069,9.881c-0.614-0.253-1.318-0.664-1.748-1.269c-0.54-0.762-0.855-1.683-1.993-2.544  c-0.451,1.41-0.903,2.819-1.193,3.728c-1.438,0.332-2.639,0.609-3.839,0.886c0.654,1.732,0.897,3.842,2.062,5.105  c1.596,1.731,3.889,2.82,5.883,4.184c-0.333,0.201-0.665,0.401-0.998,0.602c-0.059,1.139,0.096,2.347-0.244,3.396  c-0.272,0.842-1.144,1.491-1.749,2.225c-0.348-0.735-0.804-1.44-1.014-2.212c-0.253-0.927-0.295-1.911-0.429-2.87  c-0.307-0.009-0.612-0.019-0.918-0.028c-0.52,2.474-1.039,4.948-1.771,7.495c-0.812-5.353-1.409-10.778-1.925-16.508  c0.151-0.501,0.084-0.647-0.118-0.742C472.636,355.722,471.812,351.892,471.01,347.826 M480.083,351.461  c-0.158,0.15-0.317,0.299-0.466,0.458c-0.004,0.004,0.116,0.123,0.179,0.188C479.953,351.957,480.111,351.807,480.083,351.461z"/>
<path d="M464.777,301.995c-0.104,0.661-0.167,1.175-0.419,1.57c-0.467,0.73-1.044,1.39-1.574,2.079  c-0.464-0.66-1.312-1.312-1.325-1.979c-0.059-2.946-1.722-4.179-4.273-5.162c-4.811-1.853-4.917-2.32-4.797-7.406  c0.032-1.391-0.274-2.79-0.485-4.73c1.858,0.983,3.151,1.667,4.569,2.216c0.506,0.335,0.887,0.806,1.084,1.483  c-2.128,1.559-1.106,3.237-0.28,4.445c0.718,1.05,2.152,1.577,2.993-0.271C461.757,296.757,463.245,299.276,464.777,301.995z"/>
<path d="M469.739,312.15c-1.271,2.797-2.614,5.385-3.704,8.076c-0.127,0.311,1.158,1.194,2.095,2.111  c-0.661,0.258-1.651,0.968-2.548,0.864c-0.484-0.056-0.885-1.475-1.19-2.327c-0.854-2.386-1.64-4.796-2.407-7.065  c0.49-0.605,1.3-1.328,1.751-2.229c0.585-1.17,0.884-2.483,1.376-3.942c1.358,1.15,2.342,1.982,3.554,2.806  C469.177,310.949,469.459,311.461,469.739,312.15z"/>
<path d="M430.838,534.47c-3.189,0.541-5.531-0.794-7.03-3.903c-0.461,0.555-0.803,0.966-1.147,1.381  c-0.803-0.493-1.597-0.98-2.616-1.495c-1.075-2.161,0.146-3.302,1.892-4.385C424.894,528.817,427.832,531.549,430.838,534.47z"/>
<path d="M460.236,294.043c-0.808,2.042-2.242,1.516-2.96,0.465c-0.826-1.208-1.848-2.886,0.296-4.261  C458.582,291.433,459.393,292.641,460.236,294.043z"/>
<path d="M446.914,291.982c0.383-0.784,0.812-1.421,1.345-2.208c2.312,1.355,1.642,2.395-0.188,3.506  C447.564,292.954,447.263,292.542,446.914,291.982z"/>
<path d="M481.248,346.749c-0.347,0.053-0.681-0.093-1.015-0.239c0.148-0.214,0.297-0.428,0.616-0.677  C481.101,346.049,481.181,346.3,481.248,346.749z"/>
<path d="M468.588,309.777c-0.112,0.023-0.221-0.115-0.266-0.332C468.454,309.449,468.523,309.532,468.588,309.777z"/>
<path d="M473.429,359.698c0.232-0.052,0.3,0.094,0.165,0.355C473.484,360.027,473.441,359.936,473.429,359.698z"/>
<path d="M431.477,535.094c-0.154,0.093-0.311-0.016-0.5-0.304C431.085,534.757,431.262,534.851,431.477,535.094z"/>
<path d="M470.512,335.338c-0.427,0.003-0.729-0.114-1.031-0.232c0.165-0.18,0.33-0.36,0.496-0.54  C470.196,334.784,470.415,335,470.512,335.338z"/>
<path d="M461.105,312.051"/>
<path d="M460.508,310.856"/>
<path d="M474.824,338.304"/>
<path d="M480.176,351.559c-0.064,0.248-0.223,0.398-0.38,0.549c-0.062-0.065-0.183-0.185-0.179-0.188  C479.766,351.76,479.925,351.611,480.176,351.559z"/>
</svg>